<?xml version="1.0" standalone="no"?>
<!DOCTYPE svg PUBLIC "-//W3C//DTD SVG 20010904//EN"
 "http://www.w3.org/TR/2001/REC-SVG-20010904/DTD/svg10.dtd">
<svg version="1.0" xmlns="http://www.w3.org/2000/svg"
 width="554.000000pt" height="554.000000pt" viewBox="0 0 554.000000 554.000000"
 preserveAspectRatio="xMidYMid meet">
<metadata>
Created by potrace 1.11, written by Peter Selinger 2001-2013
</metadata>
<g transform="translate(0.000000,554.000000) scale(0.100000,-0.100000)"
fill="#000000" stroke="none">
<path d="M3244 5520 c-22 -5 -67 -20 -100 -33 -32 -14 -174 -64 -314 -112
-140 -48 -352 -120 -470 -160 -486 -166 -687 -247 -814 -332 -117 -77 -151
-149 -179 -378 -7 -60 -12 -143 -11 -183 l3 -73 -42 -16 c-62 -25 -532 -261
-682 -343 -142 -78 -168 -101 -220 -204 -28 -56 -35 -80 -35 -129 0 -90 17
-133 80 -201 62 -67 173 -195 235 -270 90 -109 235 -291 234 -296 0 -3 -22
-30 -50 -60 -161 -177 -286 -448 -337 -730 -30 -165 -31 -176 -38 -385 l-7
-190 204 -98 c112 -54 256 -121 319 -149 63 -28 156 -70 206 -94 51 -24 96
-44 101 -44 6 0 23 -11 38 -24 16 -14 59 -40 96 -59 l67 -35 114 63 c62 34
149 85 193 112 45 28 114 67 154 87 40 21 93 56 118 79 l45 42 23 -29 c12 -15
103 -189 201 -386 l178 -359 57 -26 c31 -14 60 -25 64 -25 6 0 69 -27 180 -75
17 -8 75 -32 130 -55 55 -23 183 -77 285 -120 191 -81 395 -166 465 -195 31
-12 36 -18 25 -25 -12 -8 -10 -10 8 -10 12 0 22 6 22 13 1 6 20 24 43 39 23
14 99 71 169 125 69 54 255 197 413 318 301 231 472 364 542 420 41 34 41 34
48 122 4 49 9 97 11 108 2 10 -2 22 -8 26 -8 5 -9 11 -1 21 14 17 7 180 -13
318 -42 290 -115 546 -206 725 -39 76 -103 177 -130 206 -31 33 -118 141 -118
147 0 10 134 94 408 258 l233 139 -5 115 c-5 120 -18 175 -70 281 -43 87 -86
139 -207 249 -63 57 -156 142 -208 189 -52 47 -106 97 -120 110 -41 37 -167
150 -191 171 -136 118 -220 199 -220 212 0 5 -8 8 -19 8 -37 0 -165 165 -177
230 -4 19 -1 38 10 54 62 96 0 303 -167 556 -101 154 -108 162 -183 217 -170
127 -271 165 -380 143z"/>
</g>
</svg>
